<?xml version="1.0" encoding="utf-8"?>
<!-- Generator: Adobe Illustrator 24.0.1, SVG Export Plug-In . SVG Version: 6.00 Build 0)  -->
<svg version="1.1" id="Layer_1" xmlns="http://www.w3.org/2000/svg" xmlns:xlink="http://www.w3.org/1999/xlink" x="0px" y="0px"
	 viewBox="0 0 20 20" style="enable-background:new 0 0 20 20;" xml:space="preserve">
<style type="text/css">
	.st0{fill:#FFFFFF;}
</style>
<path id="White_2_" class="st0" d="M15.3,4.2H4.7c-0.3,0-0.5,0.2-0.5,0.5v10.6c0,0.3,0.2,0.5,0.5,0.5h5.7v-4.3H8.9V9.6h1.4V8.2
	c0-1.5,0.9-2.2,2.3-2.2C13.3,6,13.8,6,14,6v1.6l-0.9,0c-0.7,0-0.9,0.3-0.9,0.9v1.2H14l-0.4,1.8h-1.4l0,4.3h3.1
	c0.3,0,0.5-0.2,0.5-0.5V4.7C15.8,4.4,15.6,4.2,15.3,4.2z"/>
</svg>
