<?xml version="1.0" encoding="utf-8"?>
<!-- Generator: Adobe Illustrator 24.0.1, SVG Export Plug-In . SVG Version: 6.00 Build 0)  -->
<svg version="1.1" id="Layer_1" xmlns="http://www.w3.org/2000/svg" xmlns:xlink="http://www.w3.org/1999/xlink" x="0px" y="0px"
	 viewBox="0 0 900 352.76" style="enable-background:new 0 0 900 352.76;" xml:space="preserve">
<style type="text/css">
	.st0{fill:#FFFFFF;}
</style>
<g>
	<g>
		<path class="st0" d="M134.44,144.72V80.74l-16.58,63.98H79.84L63.26,80.74v63.98H0V2.16h87.77L99.3,49.2l11.89-47.04h87.59v142.55
			H134.44z"/>
		<path class="st0" d="M309.61,144.72l-5.05-16.22h-29.2l-5.05,16.22H203.1L259.69,2.16h63.8l57.31,142.55H309.61z M289.97,81.64
			l-8.47,26.13h16.94L289.97,81.64z"/>
		<path class="st0" d="M482.08,144.72c-3.06-1.08-5.05-5.23-5.77-11.89c-0.72-7.21-1.8-22.35-2.34-26.85
			c-1.26-10.09-5.05-12.8-9.01-12.8h-9.55v51.54h-70.46V2.16h108.49c35.86,0,51.36,15.5,51.36,37.67c0,21.99-9.37,33.52-30.1,36.4
			v0.9c17.66,2.16,27.57,13.16,29.74,26.85c1.62,10.09,2.7,19.1,3.6,30.1c0.36,3.78,1.08,7.75,4.33,9.37v1.26H482.08z M475.59,60.19
			c-1.26-4.69-4.87-6.31-9.73-6.31h-10.45v19.28h10.63c5.95,0,8.65-1.8,9.55-6.31c0.18-0.9,0.36-2.16,0.36-3.24
			C475.95,62,475.77,60.91,475.59,60.19z"/>
		<path class="st0" d="M648.78,67.76c0-1.8,0-4.15-0.18-5.77c-0.36-6.49-3.78-9.73-9.37-9.73c-5.41,0-8.65,3.6-9.01,11.35
			c-0.18,2.88-0.36,6.85-0.36,10.45c0,3.06,0,7.75,0.18,9.91c0.36,7.93,3.78,10.99,9.55,10.99c5.05,0,8.65-3.06,9.01-9.01
			c0-1.62,0-3.6,0-5.41h69.38c0.18,4.51,0.18,10.63-0.18,14.24c-3.24,29.92-27.39,51.9-79.3,51.9c-55.33,0-80.38-21.63-82.18-54.25
			c-0.36-4.14-0.9-12.07-0.9-19.1c0-7.21,0.36-15.68,0.54-18.92C556.69,24.51,581.92,0,638.33,0c51.18,0,74.79,21.81,79.12,51.9
			c0.36,3.24,0.72,11.89,0.72,15.86H648.78z"/>
		<path class="st0" d="M899.28,92.09c-2.7,32.8-29.19,54.61-86.86,54.61c-58.03,0-84.16-21.27-86.87-54.43
			c-0.36-2.88-0.72-11.71-0.72-18.92c0-7.39,0.36-15.86,0.72-19.1C728.25,23.61,754.56,0,812.41,0c57.49,0,83.62,21.45,86.68,54.07
			c0.36,3.24,0.9,11.71,0.9,19.28C900,80.74,899.64,88.49,899.28,92.09z M823.59,60.19c-0.9-5.23-4.14-8.29-11.35-8.29
			c-6.85,0-10.63,3.24-11.17,8.29c-0.72,5.59-0.72,9.19-0.72,13.52c0,3.6,0.36,11.35,0.9,14.24c0.9,5.23,4.33,7.57,10.99,7.57
			c7.03,0,10.63-3.06,11.35-8.65c0.54-2.7,0.54-9.91,0.54-13.34C824.13,69.56,824.13,63.08,823.59,60.19z"/>
	</g>
	<g>
		<path class="st0" d="M147.11,350.59v-70.01l-18.14,70.01H87.36l-18.14-70.01v70.01H0V194.61h96.03l12.62,51.47l13.02-51.47h95.84
			v155.98H147.11z"/>
		<path class="st0" d="M236.44,350.59V194.61h149.47V252h-75.13v9.27h71.98v22.68h-71.98v9.47h76.71v57.19H236.44z"/>
		<path class="st0" d="M402.08,350.59V194.61h77.7v98.8h65.47v57.19H402.08z"/>
		<path class="st0" d="M557.87,350.59V194.61h77.7v98.8h65.47v57.19H557.87z"/>
		<path class="st0" d="M899.21,293.01c-2.96,35.89-31.95,59.75-95.05,59.75c-63.5,0-92.09-23.27-95.05-59.55
			c-0.39-3.15-0.79-12.82-0.79-20.71c0-8.09,0.39-17.35,0.79-20.9c2.96-33.52,31.75-59.36,95.05-59.36
			c62.91,0,91.5,23.47,94.85,59.16c0.39,3.55,0.99,12.82,0.99,21.1C900,280.59,899.61,289.07,899.21,293.01z M816.39,258.11
			c-0.99-5.72-4.54-9.07-12.42-9.07c-7.49,0-11.63,3.55-12.23,9.07c-0.79,6.11-0.79,10.06-0.79,14.79c0,3.94,0.39,12.42,0.99,15.58
			c0.99,5.72,4.73,8.28,12.03,8.28c7.69,0,11.63-3.35,12.42-9.47c0.59-2.96,0.59-10.85,0.59-14.59
			C816.98,268.36,816.98,261.26,816.39,258.11z"/>
	</g>
</g>
</svg>
