<?xml version="1.0" encoding="utf-8"?>
<!-- Generator: Adobe Illustrator 24.0.1, SVG Export Plug-In . SVG Version: 6.00 Build 0)  -->
<svg version="1.1" id="Layer_1" xmlns="http://www.w3.org/2000/svg" xmlns:xlink="http://www.w3.org/1999/xlink" x="0px" y="0px"
	 viewBox="0 0 32 32" style="enable-background:new 0 0 32 32;" xml:space="preserve">
<style type="text/css">
	.st0{fill:#FFFFFF;}
</style>
<g>
	<g>
		<path class="st0" d="M22.3,3.7H10.4c-3.6,0-6.6,3-6.6,6.8V22c0,3.7,3,6.8,6.6,6.8h11.9c3.6,0,6.6-3,6.6-6.8V10.4
			C28.9,6.7,25.9,3.7,22.3,3.7z M26.6,21.9c0,2.6-2,4.7-4.6,4.7H10.6c-2.5,0-4.6-2.1-4.6-4.7V10.6C6,8,8,5.9,10.6,5.9h11.5
			c2.5,0,4.6,2.1,4.6,4.7v11.3H26.6z"/>
		<path class="st0" d="M16.3,9.8c-3.5,0-6.3,2.9-6.3,6.4s2.8,6.4,6.3,6.4s6.3-2.9,6.3-6.4S19.8,9.8,16.3,9.8z M16.3,20.4
			c-2.2,0-4.1-1.9-4.1-4.2S14,12,16.3,12s4.1,1.9,4.1,4.2S18.6,20.4,16.3,20.4z"/>
		<ellipse class="st0" cx="23" cy="9.4" rx="1.4" ry="1.4"/>
	</g>
</g>
</svg>
