<?xml version="1.0" encoding="utf-8"?>
<!-- Generator: Adobe Illustrator 24.0.1, SVG Export Plug-In . SVG Version: 6.00 Build 0)  -->
<svg version="1.1" id="Image_Layer" xmlns="http://www.w3.org/2000/svg" xmlns:xlink="http://www.w3.org/1999/xlink" x="0px"
	 y="0px" viewBox="0 0 1296.3 1178.5" style="enable-background:new 0 0 1296.3 1178.5;" xml:space="preserve">
<style type="text/css">
	.st0{fill:#FFFFFF;}
</style>
<g>
	<path class="st0" d="M179.2,854.8c-4.9-36.9-10.9-73.7-15.1-110.6c-2.1-18.2-5-75.6-7.4-85.5c-6.5-26.8-41.5,0.4-50.1,11.1
		c-15.7,19.8-19.3,45.3-23.9,69.4c-8.9,46.5-17.1,92.7-35.8,136.2c-6.9,16.2-14.4,32.2-22.6,47.9C16.2,938.8,7.2,954.3,1,970.8
		c-2.7,7.2,0.5,18,7.8,23.8c9.7,7.6,22.7,2.5,29.2-4.1c5.9-6,18.3-21.1,24.6-33.4c7.5-14.6,17.3-36.9,20.6-44.9
		c7-17.4,14.2-41.5,22.9-60.9c4.9,34.9,17.9,135.8,20.5,151.2c2.2,13.1,4.8,30.9,13.7,41.4c15.2,17.9,43.1-12.2,51.8-23.9
		c16-21.6,22.6-48.5,27.8-74.4c7.1-35.5,15.6-83.4,22.2-119c19.6,69.7,29.6,146.8,43.4,217.8c1.7,8.7,3,26.7,15.2,27.4
		c8.7,0.5,17.7-6.7,24-11.9c7.3-6.1,13.9-12.9,19.4-20.7c10.1-14.1,13.4-21.6,10.3-38.8c-12.7-70.8-26.3-142.1-44.8-211.7
		c-7.7-28.9-15.7-57.8-24.9-86.2c-5.6-17.2-16.3-49.4-40.1-40.7c-12.2,4.4-22.1,15-30.1,24.7c-5.8,7-10.9,14.6-14.4,23
		c-3.8,9-4.5,18.6-5.5,28.2C190.7,777,185.8,816,179.2,854.8z"/>
	<path class="st0" d="M613.8,736.5c4.9,32.3,9.1,74.8,12,107c2.9,31.6,6,63.1,7.6,94.8c1.7,33.4,11.9,211.4,13.1,224.2
		c0.8,8.7,6,14.9,14.8,15.9c11.5,1.3,132-41.2,161.4-50.4c29.2-9.1,58.5-18.1,87.7-27.6c23-7.4,44.6-28.3,53.9-50.5
		c2.4-5.8,4.5-13.6,0.9-19.3c-3.8-5.8-10-5.5-16.3-3.9c-14.3,3.6-219.8,71.7-219.8,71.6c0-1.7-9.6-146-11-178.7
		c-1.4-31.8-19.5-209-21.5-219.2c-1.3-6.8-1.5-17.6-8.8-21c-11.1-5.2-30,1.9-38.4,8.3C649.3,687.8,610.5,714.7,613.8,736.5z"/>
	<path class="st0" d="M816,661.7c-13.4,4-32.7,14-42.3,24c-8.7,9-19.9,22.4-18.7,35.8c1.4,15.6,15,226.3,16.9,244.2
		c1.4,12.9,2.3,27.6,9.6,38.8c8.5,13.1,23.7,11.7,36.9,7.3c16.8-5.6,72.5-32.3,84.4-37.9c12.4-6.5,22.1-15.5,31.3-25.9
		c6.9-7.8,17.1-21.4,15-32.7c-2.4-13-15.9-9.3-24.7-5.7c-13.3,5.4-68.1,30.5-68.2,30c-0.9-4.8-1.2-15.6-2-26
		c-0.6-7.5-20.4-230.3-21.7-244.1C831.4,660.3,823.2,661.1,816,661.7L816,661.7z"/>
	<path class="st0" d="M1271.9,699.8c-11.4-39.5-39.5-69.1-78.2-82.4c-19.9-6.8-40.4-10.6-61.5-11c-21-0.4-42.1,0.3-62.8,3.2
		c-15.4,2.1-36.7,6-56.2,13.9c-2.6,1-5,2-7.2,3c-0.4-1-1-1.8-1.9-2.4c-12.9-8.9-30.9,9.1-38.1,16.4c-11.4,11.6-21.1,26.1-24.3,42.2
		c-3.8,18.7-2.5,38.5-1.7,57.4c0.8,19.1,2.3,38.2,4.7,57.2c4.6,37,13.3,74.5,28.3,108.8c13.4,30.6,33.8,61.8,63.5,78.6
		c70.6,39.9,145.6-17.9,185.8-74.1c21.1-29.5,36.7-61.9,46.4-96.8C1278.6,777.4,1282.5,736.4,1271.9,699.8z M1210.6,819.5
		c-4.5,40-20.7,93.5-66.9,100.6c-45.9,7.1-82.3-29.9-101.3-67.7c-22.6-45.2-32.5-99.5-35.4-149.6c-0.2-3.8-0.4-7.5-0.6-11.3
		c1.3-0.2,4-0.5,4-0.5s17-2.3,25.5-3.6c43.1-6.3,91.7-7.6,129.4,17.6C1203.2,730.3,1215.5,776,1210.6,819.5z"/>
	<path class="st0" d="M1110.5,34.1c-19.1,8.5-34.5,21.5-44.8,39.2c-4.5,7.8-17.4,43.6-19.6,53.7c-4.7,21.2-5.6,107.4-5.1,128.8
		c1,42.2,3.9,85.4,11,127.1c7,41.5,14.5,82.8,28.9,122.7c6.5,18,14.5,38.2,27.3,53.1c12.9,15,32.9,18.5,51.6,11.6
		c40-14.7,67.3-52.9,87.1-87c41.5-71.4,63.2-161.1,39.8-241.1c-12.7-43.6-37.8-87.1-69.8-120.8c-16.4-17.2-69-65.8-77.7-73.9
		C1131.4,40.4,1122.8,29,1110.5,34.1L1110.5,34.1z M1183.2,497.9c-9.7-5.2-18.6-18.2-23.7-27.7c-10.1-20.8-15.1-39.9-21.6-62l0,0
		c-11.3-39-15.2-75.2-19.4-115.4c-4.3-41.1-7-140.6-6.9-148.8c6.6,6.5,13.3,13.1,19.9,19.6c34.4,33.9,63,72.1,79,118.1
		c16.7,48,15.7,92.7,3.3,141.7C1207.3,449.1,1197.6,475.3,1183.2,497.9z"/>
	<path class="st0" d="M398,1080c8.4,14.8,33.2,6.6,45.4,2.7c26.6-8.6,38-14.5,64.2-24.3c25.1-9.4,56.4-16.9,74.2-38.5
		c4.6-5.5,10.9-16.2,8.1-24c-4.2-11.6-24.8-5.1-32.5-2.4c-15.4,5.5-30.3,12.5-45.7,18.2c-17.1,6.4-32.6,12.7-50.1,18.9
		c-3.5-37.3-8-84.6-11.6-128c20.1-1.3,39.8-2.7,47.6-3.3c14.1-1.1,32.7,0.1,44.7-6.2c11.5-6.1,20.1-16.7,25.8-27.3
		c4.4-8,13.4-26.4,3.6-35.1c-4.9-4.4-13.2-2.4-18.9-2c-9,0.6-66.5,4.6-86.4,5.3c-6.6,0.2-14,0-21.3,0.2c-2.1-37.5-3.4-75.1-5-112.6
		c9.6,2.3,24.5,6.1,34.1,7.4c24.4,3.3,51,7.3,75.6,6.5c20.8-0.8,42.5-27.2,48.5-47.5c3.6-12.2,2.3-19.9-9.9-21.1
		c-13.3-1.3-91.5-10.5-116.6-16.2c-28.7-6.5-39-13.6-65.6-27.3c-27.5-14.2-53.5-40.6-65-34.5c0,0-38.1,28.1-41.9,51.6
		c-2.3,14.2,39.2,39.4,51.3,46.3c5.5,3.2,11.1,6.1,16.6,8.9c2.6,28.6,4.2,57.3,5,86.1c2,70.2,5.9,140.3,12.7,210.2
		C386.8,1009.3,390,1071.3,398,1080z"/>
	<path class="st0" d="M884.5,582.5c-1.6-5.3-7.3-8.2-11.3-11.4c-9.2-7.4-63.7-51.6-81.5-66.5c-19.2-16-38-32.8-54.9-51.5
		c-1.9-2.1-3.9-4.3-5.7-6.6c11.8-0.3,36.2-7,39.9-8.9c4.5-2.3,22.6-17.2,26.9-21.7c7.4-7.6,12.6-15.9,17.7-25.1
		c2.4-4.5,6.5-24.1,5.6-28.7c-2.2-10.8-17.6-38.7-20.1-42.7c-14.9-24.1-31.9-46.9-48.2-70.1c-15.9-22.7-30.9-46-45.7-69.4
		c-11.8-18.7-22-38.4-32-58.2c-5.9-12.6-28.4-61.8-32.7-74.1c-1.9-5.5-7.9-27.5-8.3-29.3c-5.7-15.8-21.4-22.2-31-16.1
		c-14,8.9-23.9,23.3-31.4,38c-4.9,9.5-6,19.9-4.1,30.3c0.8,4.5,5.1,20.4,6.1,23.8c1,3.2,12.9,33.4,18.2,44.9
		c3.8,8.2,7.6,16.5,11.4,24.7c-0.5,34.9-1.3,112.9-2,194.6c-2.1-0.3-4-0.6-5.8-0.9c-12.4-44.9-22.5-81.1-25-89.9
		c-3.8-13.2-68.6-191.7-75-205.8c-4.8-10.6-13.7-27.6-28.6-22.9c0,0-25.1,11.9-34.7,21.7c-9.6,9.8-17.9,21.7-17.6,36
		c0.3,14.6-2.4,76.7-4.6,93.2c-1.9,14.3-18.8,111.1-34,197.9c-0.6-2.2-1.2-4.4-1.8-6.6c-4-14.7-84.4-245.6-90.9-256
		c-4.9-7.9-7.6-16.4-18.6-11.7c-20.8,7.5-42.2,28.2-49,49.3c-3.3,10.3,0.5,16.5,2.8,26.2c3.1,13.3,5.1,26.7,5.7,40.3
		c0.6,16.5,0.1,33.2-0.6,49.7c-0.1,1.9-2.9,33.5-4.6,47.4c-1.2-4.4-18.4-66.3-28.1-92.1c-7-18.8-14.3-37.7-23.6-55.5
		c-8.9-17.1-21.3-15.4-36.4-4.7c-12.9,9.2-25.9,23.1-31.3,38.3c-6,16.8,2.7,37.2,4.8,54.2c1.7,13.9,2.7,27.8,3.1,41.8
		c0.4,13.7-3.8,66.6-5.8,79.4c-2.2,14-5,27.8-8,41.6c-4.3,19.7-10.1,38.9-15.5,58.3c-1.8,6.5-7.1,18.4-2.3,24.6
		c4.3,5.7,11.5,3.5,17.1,1c35.4-15.8,42-54.5,51.7-87.8c3.9-13.2,7.2-26.6,10.4-40c0,0,0,0,0,0c0.5,2,14.2,60.3,18.3,88
		c2.6,17.2,3.2,35.6,7.5,52.4c4.8,19,24.5,8.4,35.2,0.3c12.4-9.4,23.3-22.2,29.2-36.7c6.3-15.7,24.3-117.5,26.9-130.3
		c1.4-6.9,5-25.5,5.4-27.8c0.3,0.8,17.3,56.1,24.9,83.1c9.2,33.1,18.4,66.2,27.6,99.2c3.4,12.3,5.4,27.3,11,38.8
		c6.2,12.7,23.7,5.3,32.2-0.7c1.4-1,19-14.9,21.8-17.4c9.2-8.5,17.7-19.8,21.2-31.9c2.2-7.6,10.5-48.5,18.4-88.3
		c19,2.1,38.1,4.2,57.1,6.4c14.8,1.8,29.7,3.8,44.5,6c21.4,79.6,45.1,168.9,49.1,182.9c1.7,6,8,29.2,10.7,33.3
		c2.1,3.2,4.3,4.9,11.4,4.7c18.4-2.4,30.5-15.6,36.9-22.3c5.7-5.9,10.2-12.4,14.2-19.5c5.1-9,6-16.5,5.9-26.6
		c-0.2-33.7,0.1-67.3,0.6-101c0,0.1,0.1,0.1,0.1,0.2c5.7,9.6,12.6,18.5,19.9,26.8c29.9,34.6,119.8,105.5,129,113
		c4.1,3.3,20.7,18.1,26.3,18.2c4.3,0.1,21.9-11.6,25.7-15.5c7-7.1,12.4-13.7,15.9-23.3C883.8,592.6,886,587.4,884.5,582.5z
		 M669,338.1c0.7-18.7,1.1-37.5,1.3-56.2c2.6,3.8,5.1,7.7,7.7,11.5c15.5,23.3,32.1,45.8,48,68.9c3.7,5.3,7.2,10.8,10.8,16.2
		c-5.5-0.5-36-5.1-68.7-10C668.3,358.4,668.6,348.2,669,338.1z M498.3,345.3c-16.2-1.8-32.4-3.6-48.6-5.4c0.2-1,0.4-1.9,0.6-2.7
		c5.7-26.5,20-108.4,22.4-123.4c0.7,1.7,20.5,57.8,28.8,84.5c1.9,6,6.9,24.2,13.6,48.9C509.5,346.6,503.9,345.9,498.3,345.3z"/>
	<path class="st0" d="M980.2,457.9c-4,12.8-18,47.1-23.7,59.2c-20.5-11.6-28.5-38.1-34.9-59.3c-7.7-25.6-12.4-52.4-16.9-78.7
		c-9.9-57.7-14.2-116-15.5-174.5c-0.7-32.1-0.3-64.2,0.1-96.3c13.9,16.9,23.6,36.5,32.6,56.3c9.1,20.2,17.4,40.8,24.3,61.9
		c3.6,12.1,13.3,59.4,13,70.8c-0.2,8.3-0.8,19.4,11.1,17.7c18.3-2.5,35.6-23.8,43.3-39c9.9-19.5,5.6-46.6,1.3-67.3
		c-2.6-12.9-25.3-80.7-34.7-101.5c-15.7-34.8-40-100.4-89.8-88.9c-20.1,4.6-50,22.2-60.1,39.1c-12.5,21.1-15.7,44.6-16.1,68.7
		c-0.8,55.3,1.3,110.9,5.3,166.1c3.6,49.9,12.3,100,20.3,149.4c4.3,26.9,9.9,53.8,18.7,79.6c7,20.2,16.2,42.3,32.7,56.7
		c14.7,12.9,33,13.9,50.4,5.7c36.3-17.1,65.4-60.4,89.6-127c3.6-12.2,7.2-24.9,10.7-37.2c2.2-7.8,10-25.2-0.4-30.3
		c-8-3.9-42.6,24-48.5,33.7C986.3,433.6,983.9,445.9,980.2,457.9z"/>
</g>
</svg>
