<?xml version="1.0" encoding="utf-8"?>
<!-- Generator: Adobe Illustrator 24.0.1, SVG Export Plug-In . SVG Version: 6.00 Build 0)  -->
<svg version="1.1" id="Layer_1" xmlns="http://www.w3.org/2000/svg" xmlns:xlink="http://www.w3.org/1999/xlink" x="0px" y="0px"
	 viewBox="0 0 32 32" style="enable-background:new 0 0 32 32;" xml:space="preserve">
<style type="text/css">
	.st0{fill-rule:evenodd;clip-rule:evenodd;fill:#FFFFFF;}
</style>
<g>
	<g>
		<path class="st0" d="M0.1,18.2c-0.4,1.7,0.7,4,1.6,4.8v-8C0.7,15.8,0.3,16.9,0.1,18.2z M27.4,14.3c-0.6,0-1.1,0.1-1.6,0.3
			C25.6,10.3,22,7,17.5,7c-2.9,0-6.3,1.1-7.8,3.2V23h17.8c2.5,0,4.6-2,4.6-4.4C32,16.2,29.9,14.3,27.4,14.3z M6.5,23h1.6V11.8H6.5
			C6.5,11.8,6.5,23,6.5,23z M3.3,23h1.6v-9.6H3.3V23z"/>
	</g>
</g>
</svg>
