<?xml version="1.0" encoding="utf-8"?>
<!-- Generator: Adobe Illustrator 24.0.1, SVG Export Plug-In . SVG Version: 6.00 Build 0)  -->
<svg version="1.1" id="Layer_1" xmlns="http://www.w3.org/2000/svg" xmlns:xlink="http://www.w3.org/1999/xlink" x="0px" y="0px"
	 viewBox="0 0 20 20" style="enable-background:new 0 0 20 20;" xml:space="preserve">
<style type="text/css">
	.st0{fill-rule:evenodd;clip-rule:evenodd;fill:#FFFFFF;}
</style>
<path class="st0" d="M4.7,11.2c0.2,0,0.3,0,0.5,0c0.3,0,0.6,0,0.9-0.1c-1.3-0.2-2.3-1.3-2.3-2.7c0,0,0,0,0-0.1
	C4.1,8.6,4.6,8.7,5,8.7C4.2,8.2,3.7,7.4,3.7,6.4c0-0.5,0.1-1,0.4-1.4c1.4,1.7,3.5,2.8,5.8,2.9c0-0.2-0.1-0.4-0.1-0.6
	c0-1.6,1.3-2.8,2.8-2.8c0.8,0,1.6,0.3,2.1,0.9C15.4,5.3,16,5,16.5,4.7c-0.2,0.7-0.6,1.2-1.2,1.5c0.6-0.1,1.1-0.2,1.6-0.4
	c-0.4,0.6-0.8,1.1-1.4,1.4c0,0,0,0,0,0.1c0,0.1,0,0.3,0,0.3c0,4.4-3.6,7.9-8,7.9c-1.6,0-3.1-0.5-4.4-1.3c0.2,0,0.5,0,0.7,0
	c1.3,0,2.6-0.4,3.5-1.2C6.1,13.1,5,12.3,4.7,11.2z"/>
</svg>
