<?xml version="1.0" encoding="utf-8"?>
<!-- Generator: Adobe Illustrator 24.0.1, SVG Export Plug-In . SVG Version: 6.00 Build 0)  -->
<svg version="1.1" id="Layer_1" xmlns="http://www.w3.org/2000/svg" xmlns:xlink="http://www.w3.org/1999/xlink" x="0px" y="0px"
	 viewBox="0 0 32 32" style="enable-background:new 0 0 32 32;" xml:space="preserve">
<style type="text/css">
	.st0{fill:#FFFFFF;}
</style>
<path class="st0" d="M28.9,10.7c0,0-0.3-1.8-1-2.6c-1-1-2.1-1.1-2.6-1.1C21.6,6.7,16,6.7,16,6.7l0,0c0,0-5.6,0-9.2,0.3
	C6.2,7.1,5.1,7.1,4.1,8.2c-0.8,0.8-1,2.6-1,2.6s-0.3,2.1-0.3,4.3v2c0,2.1,0.3,4.3,0.3,4.3s0.3,1.8,1,2.6c1,1,2.3,1,2.9,1.1
	c2.1,0.2,8.9,0.3,8.9,0.3s5.6,0,9.2-0.3c0.5-0.1,1.6-0.1,2.6-1.1c0.8-0.8,1-2.6,1-2.6s0.3-2.1,0.3-4.3v-2
	C29.1,12.9,28.9,10.7,28.9,10.7L28.9,10.7z M13.3,19.4V12l7.1,3.7L13.3,19.4z"/>
</svg>
